# xmcd
#
# Track frame offsets:
#	150
#	24548
#	39425
#	57554
#	80593
#	98007
#	119389
#	149104
#	173893
#	196983
#
# Disc length: 2954 seconds
#
# Revision: 0
# Processed by: cddbd v1.4PL0 Copyright (c) Steve Scherf et al.
# Submitted via: EasyCDDAExtractor 4.6.9.1
#
DISCID=8c0b880a
DTITLE=Raymond Froggatt - There goes that song
DYEAR=1998
DGENRE=Country
TTITLE0=My only love
TTITLE1=No heartbreaks after all
TTITLE2=Young and the old
TTITLE3=Letter from New Orleans
TTITLE4=Unlock the door
TTITLE5=A wish and a dream
TTITLE6=Take me home
TTITLE7=Angel
TTITLE8=Don't you feel so sad
TTITLE9=There goes that song again
EXTD=
EXTT0=
EXTT1=
EXTT2=
EXTT3=
EXTT4=
EXTT5=
EXTT6=
EXTT7=
EXTT8=
EXTT9=
PLAYORDER=
